custom-analysis
version=1
nRows=4
nColumns=98
inDegrees=no

This file contains tibia displacement and acting force.

Units are S.I. units (seconds, meters, Newtons, ...)
Angles are in degrees.

endheader
time	APT	SIT	knee_angle	aACL_R_force	pACL_R_force	aPCL_R_force	pPCL_R_force	aMCL_R_force	mMCL_R_force	pMCL_R_force	aLCL_R_force	mLCL_R_force	pLCL_R_force	aPCL_L_force	pPCL_L_force	aMCL_L_force	aLCL_L_force	aACL_R_length	pACL_R_length	aPCL_R_length	pPCL_R_length	aMCL_R_length	mMCL_R_length	pMCL_R_length	aLCL_R_length	mLCL_R_length	pLCL_R_length	aPCL_L_length	pPCL_L_length	aMCL_L_length	aLCL_L_length	aACL_R_strain	pACL_R_strain	aPCL_R_strain	pPCL_R_strain	aMCL_R_strain	mMCL_R_strain	pMCL_R_strain	aLCL_R_strain	mLCL_R_strain	pLCL_R_strain	aPCL_L_strain	pPCL_L_strain	aMCL_L_strain	aLCL_L_strain	femur_lat_meniscii_r.femur_lat_r.force.X	femur_lat_meniscii_r.femur_lat_r.force.Y	femur_lat_meniscii_r.femur_lat_r.force.Z	femur_lat_meniscii_r.femur_lat_r.torque.X	femur_lat_meniscii_r.femur_lat_r.torque.Y	femur_lat_meniscii_r.femur_lat_r.torque.Z	femur_lat_meniscii_r.meniscus_lat_r.force.X	femur_lat_meniscii_r.meniscus_lat_r.force.Y	femur_lat_meniscii_r.meniscus_lat_r.force.Z	femur_lat_meniscii_r.meniscus_lat_r.torque.X	femur_lat_meniscii_r.meniscus_lat_r.torque.Y	femur_lat_meniscii_r.meniscus_lat_r.torque.Z	femur_med_meniscii_r.femur_med_r.force.X	femur_med_meniscii_r.femur_med_r.force.Y	femur_med_meniscii_r.femur_med_r.force.Z	femur_med_meniscii_r.femur_med_r.torque.X	femur_med_meniscii_r.femur_med_r.torque.Y	femur_med_meniscii_r.femur_med_r.torque.Z	femur_med_meniscii_r.meniscus_med_r.force.X	femur_med_meniscii_r.meniscus_med_r.force.Y	femur_med_meniscii_r.meniscus_med_r.force.Z	femur_med_meniscii_r.meniscus_med_r.torque.X	femur_med_meniscii_r.meniscus_med_r.torque.Y	femur_med_meniscii_r.meniscus_med_r.torque.Z	femur_med_tibia_r.tibia_upper_r.force.X	femur_med_tibia_r.tibia_upper_r.force.Y	femur_med_tibia_r.tibia_upper_r.force.Z	femur_med_tibia_r.tibia_upper_r.torque.X	femur_med_tibia_r.tibia_upper_r.torque.Y	femur_med_tibia_r.tibia_upper_r.torque.Z	femur_med_tibia_r.femur_med_r.force.X	femur_med_tibia_r.femur_med_r.force.Y	femur_med_tibia_r.femur_med_r.force.Z	femur_med_tibia_r.femur_med_r.torque.X	femur_med_tibia_r.femur_med_r.torque.Y	femur_med_tibia_r.femur_med_r.torque.Z	femur_lat_tibia_r.tibia_upper_r.force.X	femur_lat_tibia_r.tibia_upper_r.force.Y	femur_lat_tibia_r.tibia_upper_r.force.Z	femur_lat_tibia_r.tibia_upper_r.torque.X	femur_lat_tibia_r.tibia_upper_r.torque.Y	femur_lat_tibia_r.tibia_upper_r.torque.Z	femur_lat_tibia_r.femur_lat_r.force.X	femur_lat_tibia_r.femur_lat_r.force.Y	femur_lat_tibia_r.femur_lat_r.force.Z	femur_lat_tibia_r.femur_lat_r.torque.X	femur_lat_tibia_r.femur_lat_r.torque.Y	femur_lat_tibia_r.femur_lat_r.torque.Z	femur_lat_meniscii_force_r	femur_med_meniscii_force_r	femur_lat_tibia_force_r	femur_med_tibia_force_r
      0.10642907	      0.00799037	      0.00724691	     27.30917969	      5.64705146	    -12.06592856	      0.00000000	     56.99206325	      0.00000000	      0.00000000	    -39.65029852	      0.00000000	      0.00000000	      0.00000000	      0.00000000	      0.00000000	      0.00000001	      0.00000000	      0.03227377	      0.02528189	      0.03104357	      0.03015054	      0.05716397	      0.05947887	      0.05886617	      0.05369349	      0.05064132	      0.04713358	      0.01525851	      0.01651186	      0.06550154	      0.04489616	      0.04090465	      0.00890688	     -0.00166351	      0.00879082	     -0.04769569	     -0.00526192	      0.00235264	     -0.04079716	     -0.10080656	     -0.09951945	      0.00000079	     -0.32847694	      0.00000060	     -0.00000086	     78.90020154	    330.19847410	     46.93476995	    -27.27682187	      2.07429027	     31.19626790	    -78.90020154	   -330.19847410	    -46.93476995	     10.09416641	     -2.70089423	      2.09714452	    -39.64019757	     83.02531191	     10.79597618	     -2.42950878	      0.95921550	    -16.22119225	     39.64019757	    -83.02531191	    -10.79597618	     -1.50666097	     -0.97098809	      1.85907060	    -91.75264908	   -476.25062469	     99.97658177	    -11.05482385	      2.19209151	      0.33082557	     91.75264908	    476.25062469	    -99.97658177	     50.35767952	     -1.45244033	     39.26245109	    -23.62833923	    -85.95440813	    -20.99447832	      2.92341800	     -0.81564335	      0.04923792	     23.62833923	     85.95440813	     20.99447832	    -10.75084890	      0.56207265	      9.79833768	    342.72313422	     92.63423116	     91.58180393	    495.20553615
      0.10722394	      0.00804980	      0.00735299	     27.66609499	      5.15846053	    -12.36031938	     26.57916413	     58.03729263	      0.00000000	      0.00000000	    -40.27785045	      0.00000000	      0.00000000	      0.00000000	      0.00000000	      0.00000000	      0.00000001	      0.00000000	      0.03225938	      0.02525667	      0.03110262	      0.03019094	      0.05719127	      0.05947202	      0.05882267	      0.05368682	      0.05061273	      0.04708317	      0.01525851	      0.01651186	      0.06550154	      0.04489616	      0.04044046	      0.00790039	      0.00023551	      0.01014257	     -0.04724089	     -0.00537650	      0.00161197	     -0.04091633	     -0.10131418	     -0.10048260	      0.00000079	     -0.32847694	      0.00000060	     -0.00000086	     77.38517742	    332.39658851	     46.29398776	    -27.06000618	      2.01704731	     30.51199064	    -77.38517742	   -332.39658851	    -46.29398776	     10.11560294	     -2.63694402	      2.26326327	    -38.59181009	     84.27241112	     11.82744367	     -2.82416165	      0.93130622	    -15.78335081	     38.59181009	    -84.27241112	    -11.82744367	     -1.50635416	     -0.95806383	      1.84394683	    -96.71448472	   -479.73888436	    101.36197804	    -11.17117755	      2.29985585	      0.24922522	     96.71448472	    479.73888436	   -101.36197804	     50.99459608	     -1.54278897	     41.33141384	    -22.59095034	    -79.77450817	    -19.55143868	      2.71214344	     -0.77739453	      0.03805828	     22.59095034	     79.77450817	     19.55143868	    -10.00498850	      0.53834972	      9.36390880	    344.41122374	     93.44011722	     85.18557357	    499.77728971
      0.10801882	      0.00811300	      0.00746141	     28.02531313	      5.36750922	    -12.02172450	     25.66929527	     57.52803226	      0.00000000	      0.00000000	    -41.18939773	      0.00000000	      0.00000000	      0.00000000	      0.00000000	      0.00000000	      0.00000001	      0.00000000	      0.03224538	      0.02523182	      0.03115922	      0.03022851	      0.05721771	      0.05946392	      0.05877793	      0.05367873	      0.05058255	      0.04703104	      0.01525851	      0.01651186	      0.06550154	      0.04489616	      0.03998898	      0.00690857	      0.00205558	      0.01139970	     -0.04680036	     -0.00551201	      0.00085027	     -0.04106075	     -0.10184998	     -0.10147859	      0.00000079	     -0.32847694	      0.00000060	     -0.00000086	     80.60493457	    336.26221924	     45.47025448	    -26.80520823	      2.07777651	     31.80587120	    -80.60493457	   -336.26221924	    -45.47025448	     10.17299257	     -2.70000043	      2.27946804	    -38.13342130	     85.01799714	     12.85502245	     -3.23115329	      0.91457631	    -15.60240814	     38.13342130	    -85.01799714	    -12.85502245	     -1.49330773	     -0.95514912	      1.85599549	   -104.23390951	   -486.83560080	    102.85649578	    -11.34572523	      2.44319914	      0.10288335	    104.23390951	    486.83560080	   -102.85649578	     51.74011019	     -1.67230343	     44.48121521	    -22.01616478	    -75.48599964	    -18.44071270	      2.55963502	     -0.75386248	      0.02901168	     22.01616478	     75.48599964	     18.44071270	     -9.44018317	      0.52522771	      9.12150268	    348.76493460	     94.06098692	     80.76451906	    508.38279752
      0.10844842	      0.00814879	      0.00752061	     28.22043544	      5.55367047	    -11.75356246	     25.73191699	     58.36002164	      0.00000000	      0.00000000	    -41.08079839	      0.00000000	      0.00000000	      0.00000000	      0.00000000	      0.00000000	      0.00000001	      0.00000000	      0.03223828	      0.02521882	      0.03118910	      0.03024797	      0.05723202	      0.05945939	      0.05875362	      0.05367418	      0.05056600	      0.04700256	      0.01525851	      0.01651186	      0.06550154	      0.04489616	      0.03976000	      0.00638980	      0.00301649	      0.01205063	     -0.04656204	     -0.00558772	      0.00043626	     -0.04114209	     -0.10214395	     -0.10202260	      0.00000079	     -0.32847694	      0.00000060	     -0.00000086	     80.50110003	    335.35035310	     45.33453377	    -26.72543473	      2.06591126	     31.74616218	    -80.50110003	   -335.35035310	    -45.33453377	     10.13705065	     -2.68831599	      2.31411560	    -36.66279133	     84.32149201	     13.30547301	     -3.43428262	      0.88151380	    -14.99352352	     36.66279133	    -84.32149201	    -13.30547301	     -1.46540887	     -0.93132070	      1.80822944	   -107.62524596	   -491.06242161	    103.28904875	    -11.42981846	      2.50902047	      0.06012928	    107.62524596	    491.06242161	   -103.28904875	     51.99039583	     -1.73233649	     45.89578267	    -21.44619768	    -73.22992737	    -17.91560600	      2.48170762	     -0.73540874	      0.03452071	     21.44619768	     73.22992737	     17.91560600	     -9.16789353	      0.51228894	      8.88129893	    347.84408344	     92.90484323	     78.38067744	    513.21937130
